<?xml version="1.0" encoding="iso-8859-1"?>
<!-- Uploaded to: SVG Repo, www.svgrepo.com, Generator: SVG Repo Mixer Tools -->
<svg height="800px" width="800px" version="1.1" id="Layer_1" xmlns="http://www.w3.org/2000/svg" xmlns:xlink="http://www.w3.org/1999/xlink" 
	 viewBox="0 0 392.598 392.598" xml:space="preserve">
<path style="fill:#FFFFFF;" d="M370.812,119.802c0-54.044-40.404-98.004-90.053-98.004c-30.319,0-58.311,16.485-75.119,44.024
	c-4.267,6.4-13.77,7.499-18.618,0c-16.743-27.604-44.8-44.024-75.119-44.024c-49.713,0-90.117,43.96-90.117,98.004
	c0,16.226,5.883,34.715,15.386,54.174h41.051l32.582-66.263c5.172-9.762,17.131-6.853,20.17,1.422l36.137,110.675l32.129-88.824
	c4.073-9.956,16.291-9.115,20.428-0.388l28.38,70.723l17.39-30.448c1.939-3.426,5.56-5.495,9.503-5.495h31.935
	c6.012,0,10.925,4.848,10.925,10.925c0,6.012-4.849,10.925-10.925,10.925h-25.729l-25.406,44.606
	c-4.913,8.145-16.162,6.788-19.653-1.293l-26.117-65.164l-33.164,91.733c-3.814,9.244-16.356,9.956-20.622-0.323l-37.689-115.265
	l-23.661,48.226c-1.875,3.685-5.624,6.077-9.826,6.077H49.131c42.602,71.176,122.634,148.17,147.2,170.99
	C230.206,334.816,370.812,197.378,370.812,119.802z"/>
<path style="fill:#FFC10D;" d="M279.79,40.739c-22.562,0.129-43.636,12.8-56.242,33.939c-12.606,21.01-43.055,21.269-55.855,0.323
	l0,0c-12.8-20.816-33.875-33.228-56.695-33.228C73.374,42.032,42.99,76.295,43.248,118.38
	c0.323,53.333,87.014,153.018,153.859,216.178c69.172-67.814,151.79-168.792,151.467-218.053
	C348.251,74.743,317.673,40.739,279.79,40.739z"/>
<path style="fill:#194F82;" d="M280.76,0.012c-32.776,0-63.354,15.127-84.428,41.244c-21.075-26.117-51.717-41.244-84.428-41.244
	C50.23,0.012,0.065,53.733,0.065,119.802c0,16.679,5.107,35.103,13.511,54.174h-2.651C4.913,173.976,0,178.824,0,184.901
	c0,6.012,4.848,10.925,10.925,10.925h13.382c49.713,90.57,158.707,188.703,164.655,194.004c4.848,3.685,9.762,3.685,14.61-0.065
	c7.822-6.982,189.026-172.477,189.026-269.899C392.598,53.733,342.432,0.012,280.76,0.012z M49.131,195.762h35.943
	c4.202,0,7.952-2.392,9.826-6.077l23.661-48.226l37.689,115.265c4.202,10.279,16.873,9.568,20.622,0.323l33.164-91.669
	l26.117,65.164c3.426,8.21,14.675,9.438,19.653,1.293l25.406-44.606h25.665c6.012,0,10.925-4.848,10.925-10.925
	c0-6.012-4.849-10.925-10.925-10.925h-32.065c-3.943,0-7.564,2.069-9.503,5.495l-17.39,30.448l-28.38-70.723
	c-4.008-8.727-16.291-9.568-20.428,0.388l-32.129,88.76l-36.137-110.675c-2.909-8.275-14.998-11.119-20.17-1.422l-32.517,66.198
	H37.236c-9.503-19.523-15.386-38.012-15.386-54.238c0-54.044,40.404-98.004,90.053-98.004c30.319,0,58.311,16.485,75.119,44.024
	c4.848,7.499,14.352,6.4,18.618,0c16.743-27.604,44.8-44.024,75.119-44.024c49.584,0,90.053,43.96,90.053,98.004
	c0,77.64-140.606,215.079-174.481,247.014C171.766,343.931,91.733,266.937,49.131,195.762z"/>
</svg>